<svg width="512" height="512" viewBox="0 0 512 512" fill="none" xmlns="http://www.w3.org/2000/svg">
<g clip-path="url(#clip0_6_3)">
<path d="M433 256.5C433 353.977 353.977 433 256.5 433C159.033 433 80 353.977 80 256.5C80 159.033 159.033 80 256.5 80C353.977 80 433 159.033 433 256.5Z" fill="#FFCC4D"/>
<path d="M192.764 256.5C206.303 256.5 217.278 241.135 217.278 222.181C217.278 203.226 206.303 187.861 192.764 187.861C179.225 187.861 168.25 203.226 168.25 222.181C168.25 241.135 179.225 256.5 192.764 256.5Z" fill="#66471B"/>
<path d="M320.236 256.5C333.775 256.5 344.75 241.135 344.75 222.181C344.75 203.226 333.775 187.861 320.236 187.861C306.697 187.861 295.722 203.226 295.722 222.181C295.722 241.135 306.697 256.5 320.236 256.5Z" fill="#66471B"/>
<path d="M148.639 288.486C148.639 327.355 193.705 376.736 256.5 376.736C319.295 376.736 364.361 327.708 364.361 288.486C364.361 288.486 263.04 315.51 148.639 288.486Z" fill="#66471B"/>
<path d="M261.844 311.45L251.146 311.401C219.611 310.676 197.667 305.557 197.667 305.557V373.814C197.667 403.23 217.278 432.647 256.5 432.647C295.722 432.647 315.333 403.23 315.333 373.814V305.959C297.719 309.486 279.808 311.325 261.844 311.45Z" fill="#E8596E"/>
<path d="M256.5 392.238C257.917 392.238 259.277 391.675 260.279 390.673C261.281 389.671 261.844 388.312 261.844 386.894V311.45L251.146 311.401V386.894C251.149 388.313 251.714 389.672 252.718 390.674C253.721 391.676 255.082 392.238 256.5 392.238Z" fill="#DD2F45"/>
</g>
<defs>
<clipPath id="clip0_6_3">
<rect width="353" height="353" fill="white" transform="translate(80 80)"/>
</clipPath>
</defs>
</svg>
